<mxfile host="Electron" modified="2023-04-21T17:18:27.789Z" agent="Mozilla/5.0 (Macintosh; Intel Mac OS X 10_15_7) AppleWebKit/537.36 (KHTML, like Gecko) draw.io/21.2.1 Chrome/112.0.5615.87 Electron/24.1.2 Safari/537.36" etag="yGkpg5aoDsqNWfG1CEa1" version="21.2.1" type="device">
  <diagram id="srBAZhQ2KLluDyzof_pd" name="Page-1">
    <mxGraphModel dx="584" dy="854" grid="1" gridSize="10" guides="1" tooltips="1" connect="0" arrows="0" fold="1" page="1" pageScale="1" pageWidth="850" pageHeight="1100" math="0" shadow="0">
      <root>
        <mxCell id="0" />
        <mxCell id="1" parent="0" />
        <mxCell id="NfkfM8riDZQN8jS3ffes-4" value="" style="rounded=0;whiteSpace=wrap;html=1;fillColor=none;dashed=1;" parent="1" vertex="1">
          <mxGeometry x="1170" y="250" width="139.75" height="150" as="geometry" />
        </mxCell>
        <mxCell id="EUu6mg04dgHktvgB9pTH-5" value="" style="endArrow=none;html=1;rounded=0;fontSize=16;strokeWidth=1;" parent="1" edge="1">
          <mxGeometry width="50" height="50" relative="1" as="geometry">
            <mxPoint x="1199.87" y="709.5799999999999" as="sourcePoint" />
            <mxPoint x="1199.87" y="709.5799999999999" as="targetPoint" />
          </mxGeometry>
        </mxCell>
        <mxCell id="EUu6mg04dgHktvgB9pTH-10" value="" style="endArrow=none;html=1;rounded=0;" parent="1" edge="1">
          <mxGeometry width="50" height="50" relative="1" as="geometry">
            <mxPoint x="1240" y="640.25" as="sourcePoint" />
            <mxPoint x="1180" y="740.25" as="targetPoint" />
            <Array as="points">
              <mxPoint x="1240" y="760.25" />
              <mxPoint x="1180" y="760.25" />
            </Array>
          </mxGeometry>
        </mxCell>
        <mxCell id="EUu6mg04dgHktvgB9pTH-11" value="" style="endArrow=none;html=1;rounded=0;" parent="1" edge="1">
          <mxGeometry width="50" height="50" relative="1" as="geometry">
            <mxPoint x="1180" y="700.25" as="sourcePoint" />
            <mxPoint x="1120" y="800.25" as="targetPoint" />
            <Array as="points">
              <mxPoint x="1180" y="680.25" />
              <mxPoint x="1120" y="680.25" />
            </Array>
          </mxGeometry>
        </mxCell>
        <mxCell id="EUu6mg04dgHktvgB9pTH-15" value="" style="endArrow=classic;html=1;rounded=0;strokeWidth=1;" parent="1" edge="1">
          <mxGeometry width="50" height="50" relative="1" as="geometry">
            <mxPoint x="1050" y="679.95" as="sourcePoint" />
            <mxPoint x="1050" y="649.95" as="targetPoint" />
            <Array as="points" />
          </mxGeometry>
        </mxCell>
        <mxCell id="EUu6mg04dgHktvgB9pTH-16" value="" style="endArrow=none;html=1;rounded=0;entryX=-0.008;entryY=0.875;entryDx=0;entryDy=0;entryPerimeter=0;" parent="1" edge="1">
          <mxGeometry width="50" height="50" relative="1" as="geometry">
            <mxPoint x="1280" y="639.76" as="sourcePoint" />
            <mxPoint x="1519.04" y="800.25" as="targetPoint" />
            <Array as="points">
              <mxPoint x="1060" y="640.25" />
              <mxPoint x="1060" y="800.25" />
            </Array>
          </mxGeometry>
        </mxCell>
        <mxCell id="EUu6mg04dgHktvgB9pTH-22" value="" style="endArrow=classic;html=1;rounded=0;strokeWidth=1;startArrow=classic;startFill=1;" parent="1" edge="1">
          <mxGeometry width="50" height="50" relative="1" as="geometry">
            <mxPoint x="1320" y="810.2499999999999" as="sourcePoint" />
            <mxPoint x="1360" y="810.41" as="targetPoint" />
            <Array as="points" />
          </mxGeometry>
        </mxCell>
        <mxCell id="EUu6mg04dgHktvgB9pTH-23" value="" style="endArrow=classic;html=1;rounded=0;strokeWidth=1;startArrow=classic;startFill=1;" parent="1" edge="1">
          <mxGeometry width="50" height="50" relative="1" as="geometry">
            <mxPoint x="1190" y="770.25" as="sourcePoint" />
            <mxPoint x="1230" y="770.25" as="targetPoint" />
            <Array as="points" />
          </mxGeometry>
        </mxCell>
        <mxCell id="EUu6mg04dgHktvgB9pTH-32" value="" style="endArrow=none;html=1;rounded=0;" parent="1" edge="1">
          <mxGeometry width="50" height="50" relative="1" as="geometry">
            <mxPoint x="1280" y="600.5" as="sourcePoint" />
            <mxPoint x="1280" y="600.5" as="targetPoint" />
            <Array as="points">
              <mxPoint x="1460" y="599.76" />
              <mxPoint x="1460" y="679.76" />
              <mxPoint x="1280" y="680.5" />
            </Array>
          </mxGeometry>
        </mxCell>
        <mxCell id="EUu6mg04dgHktvgB9pTH-33" value="" style="endArrow=none;html=1;rounded=0;" parent="1" edge="1">
          <mxGeometry width="50" height="50" relative="1" as="geometry">
            <mxPoint x="1520" y="640.25" as="sourcePoint" />
            <mxPoint x="1460" y="639.76" as="targetPoint" />
          </mxGeometry>
        </mxCell>
        <mxCell id="EUu6mg04dgHktvgB9pTH-34" value="" style="triangle;whiteSpace=wrap;html=1;fontSize=16;strokeWidth=1;rotation=0;" parent="1" vertex="1">
          <mxGeometry x="1400" y="668.07" width="20" height="25" as="geometry" />
        </mxCell>
        <mxCell id="EUu6mg04dgHktvgB9pTH-35" value="" style="triangle;whiteSpace=wrap;html=1;fontSize=16;strokeWidth=1;rotation=-180;" parent="1" vertex="1">
          <mxGeometry x="1420.4999999999998" y="668.07" width="20" height="25" as="geometry" />
        </mxCell>
        <mxCell id="EUu6mg04dgHktvgB9pTH-36" value="" style="ellipse;whiteSpace=wrap;html=1;fontSize=16;strokeWidth=1;" parent="1" vertex="1">
          <mxGeometry x="1400" y="580.2499999999999" width="40" height="40" as="geometry" />
        </mxCell>
        <mxCell id="EUu6mg04dgHktvgB9pTH-37" value="" style="triangle;whiteSpace=wrap;html=1;fontSize=16;strokeWidth=1;rotation=0;fillColor=#000000;" parent="1" vertex="1">
          <mxGeometry x="1420" y="580.25" width="20" height="40" as="geometry" />
        </mxCell>
        <mxCell id="EUu6mg04dgHktvgB9pTH-39" value="" style="endArrow=classic;html=1;rounded=0;strokeWidth=1;" parent="1" edge="1">
          <mxGeometry width="50" height="50" relative="1" as="geometry">
            <mxPoint x="1400" y="270" as="sourcePoint" />
            <mxPoint x="1440" y="270" as="targetPoint" />
            <Array as="points" />
          </mxGeometry>
        </mxCell>
        <mxCell id="EUu6mg04dgHktvgB9pTH-40" value="" style="endArrow=none;html=1;rounded=0;" parent="1" edge="1">
          <mxGeometry width="50" height="50" relative="1" as="geometry">
            <mxPoint x="1520" y="280" as="sourcePoint" />
            <mxPoint x="1520" y="360" as="targetPoint" />
            <Array as="points">
              <mxPoint x="1200" y="280" />
              <mxPoint x="1200" y="360" />
            </Array>
          </mxGeometry>
        </mxCell>
        <mxCell id="EUu6mg04dgHktvgB9pTH-41" value="" style="ellipse;whiteSpace=wrap;html=1;fontSize=16;strokeWidth=1;" parent="1" vertex="1">
          <mxGeometry x="1321" y="260" width="40" height="40" as="geometry" />
        </mxCell>
        <mxCell id="EUu6mg04dgHktvgB9pTH-42" value="" style="triangle;whiteSpace=wrap;html=1;fontSize=16;strokeWidth=1;rotation=0;fillColor=#000000;" parent="1" vertex="1">
          <mxGeometry x="1340" y="260" width="20" height="40" as="geometry" />
        </mxCell>
        <mxCell id="EUu6mg04dgHktvgB9pTH-43" value="" style="endArrow=classic;html=1;rounded=0;strokeWidth=1;" parent="1" edge="1">
          <mxGeometry width="50" height="50" relative="1" as="geometry">
            <mxPoint x="1361" y="690.25" as="sourcePoint" />
            <mxPoint x="1320" y="690.25" as="targetPoint" />
            <Array as="points" />
          </mxGeometry>
        </mxCell>
        <mxCell id="EUu6mg04dgHktvgB9pTH-49" value="P1" style="text;html=1;align=center;verticalAlign=middle;resizable=0;points=[];autosize=1;strokeColor=none;fillColor=none;" parent="1" vertex="1">
          <mxGeometry x="1326" y="300" width="30" height="20" as="geometry" />
        </mxCell>
        <mxCell id="EUu6mg04dgHktvgB9pTH-50" value="" style="endArrow=none;html=1;rounded=0;entryX=0.993;entryY=0.507;entryDx=0;entryDy=0;entryPerimeter=0;" parent="1" edge="1">
          <mxGeometry width="50" height="50" relative="1" as="geometry">
            <mxPoint x="1420" y="670.0799999999999" as="sourcePoint" />
            <mxPoint x="1419.8600000000001" y="680.5050000000001" as="targetPoint" />
          </mxGeometry>
        </mxCell>
        <mxCell id="EUu6mg04dgHktvgB9pTH-55" value="Reversible connection" style="text;html=1;align=center;verticalAlign=middle;resizable=0;points=[];autosize=1;strokeColor=none;fillColor=none;" parent="1" vertex="1">
          <mxGeometry x="1300" y="699.76" width="140" height="30" as="geometry" />
        </mxCell>
        <mxCell id="EUu6mg04dgHktvgB9pTH-67" value="" style="ellipse;whiteSpace=wrap;html=1;fontSize=16;strokeWidth=1;" parent="1" vertex="1">
          <mxGeometry x="1160" y="619.2499999999999" width="40" height="40" as="geometry" />
        </mxCell>
        <mxCell id="EUu6mg04dgHktvgB9pTH-68" value="" style="triangle;whiteSpace=wrap;html=1;fontSize=16;strokeWidth=1;rotation=0;fillColor=#000000;" parent="1" vertex="1">
          <mxGeometry x="1180" y="620.25" width="18" height="40" as="geometry" />
        </mxCell>
        <mxCell id="EUu6mg04dgHktvgB9pTH-69" value="" style="rounded=0;whiteSpace=wrap;html=1;fillColor=none;dashed=1;" parent="1" vertex="1">
          <mxGeometry x="1520" y="120" width="120" height="720" as="geometry" />
        </mxCell>
        <mxCell id="EUu6mg04dgHktvgB9pTH-71" value="District&lt;br&gt;Network&lt;br&gt;Load Side" style="text;html=1;strokeColor=none;fillColor=none;align=center;verticalAlign=middle;whiteSpace=wrap;rounded=0;dashed=1;" parent="1" vertex="1">
          <mxGeometry x="1530" y="200" width="100" height="30" as="geometry" />
        </mxCell>
        <mxCell id="EUu6mg04dgHktvgB9pTH-72" value="" style="triangle;whiteSpace=wrap;html=1;fillColor=none;rotation=-180;strokeColor=#3333FF;" parent="1" vertex="1">
          <mxGeometry x="1510" y="174.5" width="10" height="10.25" as="geometry" />
        </mxCell>
        <mxCell id="EUu6mg04dgHktvgB9pTH-73" value="PI" style="whiteSpace=wrap;html=1;aspect=fixed;fillColor=none;strokeColor=#3333FF;fontColor=#3333FF;" parent="1" vertex="1">
          <mxGeometry x="1320" y="159.63" width="40" height="40" as="geometry" />
        </mxCell>
        <mxCell id="EUu6mg04dgHktvgB9pTH-74" value="Min of&lt;br&gt;user pressure head" style="endArrow=none;html=1;rounded=0;entryX=0.85;entryY=0.561;entryDx=0;entryDy=0;entryPerimeter=0;exitX=0.05;exitY=0.561;exitDx=0;exitDy=0;exitPerimeter=0;startArrow=none;strokeColor=#3333FF;fontColor=#3333FF;" parent="1" source="EUu6mg04dgHktvgB9pTH-75" target="EUu6mg04dgHktvgB9pTH-72" edge="1">
          <mxGeometry x="-0.0142" y="19" width="50" height="50" relative="1" as="geometry">
            <mxPoint x="1330" y="380" as="sourcePoint" />
            <mxPoint x="1380" y="330" as="targetPoint" />
            <mxPoint as="offset" />
          </mxGeometry>
        </mxCell>
        <mxCell id="EUu6mg04dgHktvgB9pTH-75" value="" style="triangle;whiteSpace=wrap;html=1;fillColor=none;rotation=-180;strokeColor=#3333FF;fontColor=#3333FF;" parent="1" vertex="1">
          <mxGeometry x="1361" y="174.5" width="10" height="10.25" as="geometry" />
        </mxCell>
        <mxCell id="EUu6mg04dgHktvgB9pTH-76" value="" style="endArrow=none;html=1;rounded=0;entryX=0.85;entryY=0.561;entryDx=0;entryDy=0;entryPerimeter=0;exitX=1.008;exitY=0.483;exitDx=0;exitDy=0;exitPerimeter=0;strokeColor=#3333FF;fontColor=#3333FF;" parent="1" source="EUu6mg04dgHktvgB9pTH-73" target="EUu6mg04dgHktvgB9pTH-75" edge="1">
          <mxGeometry width="50" height="50" relative="1" as="geometry">
            <mxPoint x="1441.3200000000002" y="179.32000000000005" as="sourcePoint" />
            <mxPoint x="1511.5" y="178.99974999999995" as="targetPoint" />
          </mxGeometry>
        </mxCell>
        <mxCell id="EUu6mg04dgHktvgB9pTH-77" value="" style="triangle;whiteSpace=wrap;html=1;fillColor=none;rotation=90;strokeColor=#3333FF;fontColor=#3333FF;" parent="1" vertex="1">
          <mxGeometry x="1335" y="199.63" width="10" height="10.25" as="geometry" />
        </mxCell>
        <mxCell id="EUu6mg04dgHktvgB9pTH-78" value="&lt;i&gt;y&lt;/i&gt;" style="endArrow=none;html=1;rounded=0;exitX=0.038;exitY=0.5;exitDx=0;exitDy=0;exitPerimeter=0;startArrow=none;strokeColor=#3333FF;fontColor=#3333FF;" parent="1" source="EUu6mg04dgHktvgB9pTH-79" edge="1">
          <mxGeometry x="-0.5074" y="-10" width="50" height="50" relative="1" as="geometry">
            <mxPoint x="1340" y="390" as="sourcePoint" />
            <mxPoint x="1340" y="210" as="targetPoint" />
            <mxPoint as="offset" />
          </mxGeometry>
        </mxCell>
        <mxCell id="EUu6mg04dgHktvgB9pTH-79" value="" style="triangle;whiteSpace=wrap;html=1;fillColor=none;rotation=90;strokeColor=#3333FF;fontColor=#3333FF;" parent="1" vertex="1">
          <mxGeometry x="1335" y="249.75" width="10" height="10.25" as="geometry" />
        </mxCell>
        <mxCell id="EUu6mg04dgHktvgB9pTH-81" value="" style="whiteSpace=wrap;html=1;aspect=fixed;fillColor=none;strokeColor=#3333FF;fontColor=#3333FF;" parent="1" vertex="1">
          <mxGeometry x="1120" y="440.25" width="120" height="120" as="geometry" />
        </mxCell>
        <mxCell id="EUu6mg04dgHktvgB9pTH-82" value="" style="triangle;whiteSpace=wrap;html=1;fillColor=none;rotation=0;strokeColor=#3333FF;fontColor=#3333FF;" parent="1" vertex="1">
          <mxGeometry x="1110" y="485.25" width="10" height="10.25" as="geometry" />
        </mxCell>
        <mxCell id="EUu6mg04dgHktvgB9pTH-83" value="" style="triangle;whiteSpace=wrap;html=1;fillColor=none;rotation=0;strokeColor=#3333FF;fontColor=#3333FF;" parent="1" vertex="1">
          <mxGeometry x="1110" y="504.74" width="10" height="10.25" as="geometry" />
        </mxCell>
        <mxCell id="EUu6mg04dgHktvgB9pTH-84" value="" style="triangle;whiteSpace=wrap;html=1;fillColor=none;rotation=0;strokeColor=#3333FF;fontColor=#3333FF;" parent="1" vertex="1">
          <mxGeometry x="1110" y="524.74" width="10" height="10.25" as="geometry" />
        </mxCell>
        <mxCell id="EUu6mg04dgHktvgB9pTH-85" value="" style="triangle;whiteSpace=wrap;html=1;fillColor=none;rotation=0;strokeColor=#3333FF;fontColor=#3333FF;" parent="1" vertex="1">
          <mxGeometry x="1160" y="465" width="10" height="10.25" as="geometry" />
        </mxCell>
        <mxCell id="EUu6mg04dgHktvgB9pTH-86" value="" style="triangle;whiteSpace=wrap;html=1;fillColor=none;rotation=0;strokeColor=#3333FF;fontColor=#3333FF;" parent="1" vertex="1">
          <mxGeometry x="1240" y="470" width="10" height="10.25" as="geometry" />
        </mxCell>
        <mxCell id="EUu6mg04dgHktvgB9pTH-87" value="" style="triangle;whiteSpace=wrap;html=1;fillColor=none;rotation=0;strokeColor=#3333FF;fontColor=#3333FF;" parent="1" vertex="1">
          <mxGeometry x="1240" y="545" width="10" height="10.25" as="geometry" />
        </mxCell>
        <mxCell id="EUu6mg04dgHktvgB9pTH-89" value="Command:&lt;br&gt;Charge/Hold/Discharge Tank" style="rounded=0;whiteSpace=wrap;html=1;strokeColor=#3333FF;fontColor=#3333FF;fillColor=none;" parent="1" vertex="1">
          <mxGeometry x="920" y="435.5" width="140" height="60" as="geometry" />
        </mxCell>
        <mxCell id="EUu6mg04dgHktvgB9pTH-90" value="Command: Chiller&lt;br&gt;Online/Offline" style="rounded=0;whiteSpace=wrap;html=1;strokeColor=#3333FF;fontColor=#3333FF;fillColor=none;" parent="1" vertex="1">
          <mxGeometry x="920" y="505" width="140" height="40" as="geometry" />
        </mxCell>
        <mxCell id="EUu6mg04dgHktvgB9pTH-91" value="" style="triangle;whiteSpace=wrap;html=1;fillColor=none;rotation=0;strokeColor=#3333FF;fontColor=#3333FF;" parent="1" vertex="1">
          <mxGeometry x="1060" y="504.74" width="10" height="10.25" as="geometry" />
        </mxCell>
        <mxCell id="EUu6mg04dgHktvgB9pTH-94" value="" style="triangle;whiteSpace=wrap;html=1;fillColor=none;rotation=-180;strokeColor=#3333FF;" parent="1" vertex="1">
          <mxGeometry x="1149" y="715.63" width="10" height="10.25" as="geometry" />
        </mxCell>
        <mxCell id="EUu6mg04dgHktvgB9pTH-95" value="" style="endArrow=none;html=1;rounded=0;strokeColor=#3333FF;fontColor=#3333FF;exitX=0.95;exitY=0.525;exitDx=0;exitDy=0;exitPerimeter=0;" parent="1" source="EUu6mg04dgHktvgB9pTH-94" edge="1">
          <mxGeometry width="50" height="50" relative="1" as="geometry">
            <mxPoint x="1140" y="730.25" as="sourcePoint" />
            <mxPoint x="1110" y="530.25" as="targetPoint" />
            <Array as="points">
              <mxPoint x="1100" y="720.25" />
              <mxPoint x="1100" y="530.25" />
            </Array>
          </mxGeometry>
        </mxCell>
        <mxCell id="EUu6mg04dgHktvgB9pTH-96" value="Max of&lt;br&gt;user valve position" style="text;html=1;strokeColor=none;fillColor=none;align=center;verticalAlign=middle;whiteSpace=wrap;rounded=0;fontColor=#3333FF;" parent="1" vertex="1">
          <mxGeometry x="1100" y="139.75000000000006" width="110" height="30" as="geometry" />
        </mxCell>
        <mxCell id="EUu6mg04dgHktvgB9pTH-97" value="Tank status" style="text;html=1;strokeColor=none;fillColor=none;align=center;verticalAlign=middle;whiteSpace=wrap;rounded=0;fontColor=#3333FF;" parent="1" vertex="1">
          <mxGeometry x="1107" y="705.58" width="60" height="30" as="geometry" />
        </mxCell>
        <mxCell id="EUu6mg04dgHktvgB9pTH-98" value="" style="triangle;whiteSpace=wrap;html=1;fillColor=none;rotation=-180;strokeColor=#3333FF;" parent="1" vertex="1">
          <mxGeometry x="1510" y="133.87999999999988" width="10" height="10.25" as="geometry" />
        </mxCell>
        <mxCell id="EUu6mg04dgHktvgB9pTH-99" value="" style="endArrow=none;html=1;rounded=0;strokeColor=#3333FF;fontColor=#3333FF;entryX=0.9;entryY=0.463;entryDx=0;entryDy=0;entryPerimeter=0;exitX=0;exitY=0.488;exitDx=0;exitDy=0;exitPerimeter=0;" parent="1" source="EUu6mg04dgHktvgB9pTH-85" target="EUu6mg04dgHktvgB9pTH-98" edge="1">
          <mxGeometry width="50" height="50" relative="1" as="geometry">
            <mxPoint x="1160" y="390" as="sourcePoint" />
            <mxPoint x="1190" y="780" as="targetPoint" />
            <Array as="points">
              <mxPoint x="1100" y="470" />
              <mxPoint x="1100" y="140" />
            </Array>
          </mxGeometry>
        </mxCell>
        <mxCell id="EUu6mg04dgHktvgB9pTH-100" value="" style="triangle;whiteSpace=wrap;html=1;fillColor=none;rotation=90;strokeColor=#3333FF;fontColor=#3333FF;" parent="1" vertex="1">
          <mxGeometry x="1415" y="570" width="10" height="10.25" as="geometry" />
        </mxCell>
        <mxCell id="EUu6mg04dgHktvgB9pTH-104" value="" style="endArrow=none;html=1;rounded=0;strokeColor=#3333FF;fontColor=#3333FF;exitX=0.078;exitY=0.5;exitDx=0;exitDy=0;exitPerimeter=0;entryX=1.075;entryY=0.538;entryDx=0;entryDy=0;entryPerimeter=0;" parent="1" source="EUu6mg04dgHktvgB9pTH-100" target="EUu6mg04dgHktvgB9pTH-86" edge="1">
          <mxGeometry width="50" height="50" relative="1" as="geometry">
            <mxPoint x="1140" y="620.25" as="sourcePoint" />
            <mxPoint x="1210" y="490.25" as="targetPoint" />
            <Array as="points">
              <mxPoint x="1420" y="475.25" />
            </Array>
          </mxGeometry>
        </mxCell>
        <mxCell id="EUu6mg04dgHktvgB9pTH-105" value="" style="triangle;whiteSpace=wrap;html=1;fillColor=none;rotation=90;strokeColor=#3333FF;fontColor=#3333FF;" parent="1" vertex="1">
          <mxGeometry x="1175" y="610" width="10" height="10.25" as="geometry" />
        </mxCell>
        <mxCell id="EUu6mg04dgHktvgB9pTH-106" value="" style="endArrow=none;html=1;rounded=0;strokeColor=#3333FF;fontColor=#3333FF;entryX=0.9;entryY=0.513;entryDx=0;entryDy=0;entryPerimeter=0;" parent="1" target="EUu6mg04dgHktvgB9pTH-87" edge="1">
          <mxGeometry width="50" height="50" relative="1" as="geometry">
            <mxPoint x="1180" y="610.25" as="sourcePoint" />
            <mxPoint x="1190" y="570.25" as="targetPoint" />
            <Array as="points">
              <mxPoint x="1180" y="580.25" />
              <mxPoint x="1260" y="580.25" />
              <mxPoint x="1260" y="550.25" />
            </Array>
          </mxGeometry>
        </mxCell>
        <mxCell id="EUu6mg04dgHktvgB9pTH-108" value="&lt;span style=&quot;border-color: var(--border-color); color: rgb(51, 51, 255); font-family: Helvetica; font-size: 12px; font-variant-ligatures: normal; font-variant-caps: normal; font-weight: 400; letter-spacing: normal; orphans: 2; text-indent: 0px; text-transform: none; widows: 2; word-spacing: 0px; -webkit-text-stroke-width: 0px; text-decoration-thickness: initial; text-decoration-style: initial; text-decoration-color: initial; text-align: left; background-color: rgb(255, 255, 255);&quot;&gt;&lt;font style=&quot;border-color: var(--border-color); font-size: 12px;&quot;&gt;&lt;i style=&quot;border-color: var(--border-color);&quot;&gt;ṁ&lt;/i&gt;&lt;span style=&quot;border-color: var(--border-color);&quot;&gt;&lt;sub&gt;chi&lt;/sub&gt;&lt;/span&gt;&lt;/font&gt;&lt;/span&gt;" style="text;whiteSpace=wrap;html=1;fontSize=12;fontFamily=Helvetica;fontColor=#3333FF;" parent="1" vertex="1">
          <mxGeometry x="1185" y="585.25" width="20" height="20" as="geometry" />
        </mxCell>
        <mxCell id="EUu6mg04dgHktvgB9pTH-109" value="&lt;span style=&quot;border-color: var(--border-color); color: rgb(51, 51, 255); font-family: Helvetica; font-size: 12px; font-style: normal; font-variant-ligatures: normal; font-variant-caps: normal; font-weight: 400; letter-spacing: normal; orphans: 2; text-indent: 0px; text-transform: none; widows: 2; word-spacing: 0px; -webkit-text-stroke-width: 0px; text-decoration-thickness: initial; text-decoration-style: initial; text-decoration-color: initial; text-align: left; background-color: rgb(255, 255, 255);&quot;&gt;&lt;font style=&quot;border-color: var(--border-color); font-size: 12px;&quot;&gt;&lt;i style=&quot;border-color: var(--border-color);&quot;&gt;y&lt;/i&gt;&lt;/font&gt;&lt;/span&gt;" style="text;whiteSpace=wrap;html=1;fontSize=12;fontFamily=Helvetica;fontColor=#3333FF;" parent="1" vertex="1">
          <mxGeometry x="1430" y="539.3399999999999" width="16" height="20" as="geometry" />
        </mxCell>
        <mxCell id="EUu6mg04dgHktvgB9pTH-114" value="&lt;b&gt;&lt;font style=&quot;font-size: 16px&quot;&gt;Control Signals&lt;/font&gt;&lt;/b&gt;" style="text;html=1;align=center;verticalAlign=middle;resizable=0;points=[];autosize=1;strokeColor=none;fillColor=none;strokeWidth=1;" parent="1" vertex="1">
          <mxGeometry x="920" y="80.25" width="140" height="30" as="geometry" />
        </mxCell>
        <mxCell id="qbNMRIMEjZ6maihlZpFf-6" value="" style="triangle;whiteSpace=wrap;html=1;fillColor=none;rotation=90;strokeColor=#3333FF;fontColor=#3333FF;" parent="1" vertex="1">
          <mxGeometry x="1135" y="430" width="10" height="10.25" as="geometry" />
        </mxCell>
        <mxCell id="qbNMRIMEjZ6maihlZpFf-7" value="" style="endArrow=none;html=1;rounded=0;strokeColor=#3333FF;fontColor=#3333FF;entryX=-0.037;entryY=0.549;entryDx=0;entryDy=0;entryPerimeter=0;" parent="1" target="qbNMRIMEjZ6maihlZpFf-6" edge="1">
          <mxGeometry width="50" height="50" relative="1" as="geometry">
            <mxPoint x="1340" y="230" as="sourcePoint" />
            <mxPoint x="1220" y="420" as="targetPoint" />
            <Array as="points">
              <mxPoint x="1140" y="230" />
            </Array>
          </mxGeometry>
        </mxCell>
        <mxCell id="qbNMRIMEjZ6maihlZpFf-9" value="" style="triangle;whiteSpace=wrap;html=1;fillColor=none;rotation=0;strokeColor=#3333FF;fontColor=#3333FF;" parent="1" vertex="1">
          <mxGeometry x="1240" y="524.74" width="10" height="10.25" as="geometry" />
        </mxCell>
        <mxCell id="qbNMRIMEjZ6maihlZpFf-10" value="" style="endArrow=none;html=1;rounded=0;strokeColor=#3333FF;fontColor=#3333FF;entryX=1.075;entryY=0.5;entryDx=0;entryDy=0;entryPerimeter=0;exitX=0.03;exitY=0.5;exitDx=0;exitDy=0;exitPerimeter=0;" parent="1" source="qbNMRIMEjZ6maihlZpFf-12" target="qbNMRIMEjZ6maihlZpFf-9" edge="1">
          <mxGeometry width="50" height="50" relative="1" as="geometry">
            <mxPoint x="1190" y="620.25" as="sourcePoint" />
            <mxPoint x="1219" y="560.25825" as="targetPoint" />
            <Array as="points">
              <mxPoint x="1420" y="640" />
              <mxPoint x="1300" y="640" />
              <mxPoint x="1300" y="530.25" />
            </Array>
          </mxGeometry>
        </mxCell>
        <mxCell id="qbNMRIMEjZ6maihlZpFf-11" value="&lt;span style=&quot;border-color: var(--border-color); color: rgb(51, 51, 255); font-family: Helvetica; font-size: 12px; font-variant-ligatures: normal; font-variant-caps: normal; font-weight: 400; letter-spacing: normal; orphans: 2; text-indent: 0px; text-transform: none; widows: 2; word-spacing: 0px; -webkit-text-stroke-width: 0px; text-decoration-thickness: initial; text-decoration-style: initial; text-decoration-color: initial; text-align: left; background-color: rgb(255, 255, 255);&quot;&gt;&lt;font style=&quot;border-color: var(--border-color); font-size: 12px;&quot;&gt;&lt;i style=&quot;border-color: var(--border-color);&quot;&gt;ṁ&lt;/i&gt;&lt;span style=&quot;border-color: var(--border-color);&quot;&gt;&lt;sub&gt;val&lt;/sub&gt;&lt;/span&gt;&lt;/font&gt;&lt;/span&gt;" style="text;whiteSpace=wrap;html=1;fontSize=12;fontFamily=Helvetica;fontColor=#3333FF;" parent="1" vertex="1">
          <mxGeometry x="1425" y="634.25" width="20" height="20" as="geometry" />
        </mxCell>
        <mxCell id="qbNMRIMEjZ6maihlZpFf-12" value="" style="triangle;whiteSpace=wrap;html=1;fillColor=none;rotation=90;strokeColor=#3333FF;fontColor=#3333FF;" parent="1" vertex="1">
          <mxGeometry x="1415" y="650" width="10" height="10.25" as="geometry" />
        </mxCell>
        <mxCell id="qbNMRIMEjZ6maihlZpFf-16" value="Chiller 1" style="rounded=0;whiteSpace=wrap;html=1;strokeWidth=2;" parent="1" vertex="1">
          <mxGeometry x="1179.84" y="300" width="40" height="40" as="geometry" />
        </mxCell>
        <mxCell id="qbNMRIMEjZ6maihlZpFf-17" value="Chiller 2" style="rounded=0;whiteSpace=wrap;html=1;strokeWidth=2;" parent="1" vertex="1">
          <mxGeometry x="1040" y="699.76" width="40" height="40" as="geometry" />
        </mxCell>
        <mxCell id="qbNMRIMEjZ6maihlZpFf-18" value="P&lt;sub&gt;pri&lt;/sub&gt;" style="text;html=1;align=center;verticalAlign=middle;resizable=0;points=[];autosize=1;strokeColor=none;fillColor=none;" parent="1" vertex="1">
          <mxGeometry x="1160" y="655.25" width="40" height="30" as="geometry" />
        </mxCell>
        <mxCell id="qbNMRIMEjZ6maihlZpFf-19" value="P&lt;sub&gt;sec&lt;/sub&gt;" style="text;html=1;align=center;verticalAlign=middle;resizable=0;points=[];autosize=1;strokeColor=none;fillColor=none;" parent="1" vertex="1">
          <mxGeometry x="1395" y="614.25" width="50" height="30" as="geometry" />
        </mxCell>
        <mxCell id="qbNMRIMEjZ6maihlZpFf-20" value="If plant 2 is producing CHW,&lt;br&gt;P&lt;sub&gt;sec&lt;/sub&gt;&amp;nbsp;uses&amp;nbsp;the same &lt;i&gt;y&lt;/i&gt; signal with P1;&lt;br&gt;Otherwise, &lt;i&gt;y&lt;/i&gt; = 0." style="text;html=1;strokeColor=none;fillColor=none;align=left;verticalAlign=middle;whiteSpace=wrap;rounded=0;fontColor=#3333FF;" parent="1" vertex="1">
          <mxGeometry x="1251.25" y="441.63" width="198.75" height="49.75" as="geometry" />
        </mxCell>
        <mxCell id="cwQXnEI9I7Ugpv4NzCKq-13" value="" style="rounded=0;whiteSpace=wrap;html=1;" parent="1" vertex="1">
          <mxGeometry x="1320" y="584.88" width="40" height="30" as="geometry" />
        </mxCell>
        <mxCell id="cwQXnEI9I7Ugpv4NzCKq-14" value="" style="endArrow=none;html=1;rounded=0;" parent="1" edge="1">
          <mxGeometry width="50" height="50" relative="1" as="geometry">
            <mxPoint x="1360" y="615.37" as="sourcePoint" />
            <mxPoint x="1320" y="585.37" as="targetPoint" />
          </mxGeometry>
        </mxCell>
        <mxCell id="cwQXnEI9I7Ugpv4NzCKq-15" value="" style="ellipse;whiteSpace=wrap;html=1;aspect=fixed;fillColor=#000000;fillStyle=solid;" parent="1" vertex="1">
          <mxGeometry x="1315" y="580.25" width="10" height="10" as="geometry" />
        </mxCell>
        <mxCell id="cwQXnEI9I7Ugpv4NzCKq-16" value="" style="endArrow=classic;html=1;rounded=0;strokeWidth=1;" parent="1" edge="1">
          <mxGeometry width="50" height="50" relative="1" as="geometry">
            <mxPoint x="1320" y="625.37" as="sourcePoint" />
            <mxPoint x="1360" y="625.37" as="targetPoint" />
            <Array as="points" />
          </mxGeometry>
        </mxCell>
        <mxCell id="cwQXnEI9I7Ugpv4NzCKq-18" value="Check Valve" style="text;html=1;align=center;verticalAlign=middle;resizable=0;points=[];autosize=1;strokeColor=none;fillColor=none;" parent="1" vertex="1">
          <mxGeometry x="1296" y="555.2499999999999" width="90" height="30" as="geometry" />
        </mxCell>
        <mxCell id="cwQXnEI9I7Ugpv4NzCKq-19" value="" style="triangle;whiteSpace=wrap;html=1;fillColor=none;rotation=0;strokeColor=#3333FF;fontColor=#3333FF;" parent="1" vertex="1">
          <mxGeometry x="1060" y="484.62" width="10" height="10.25" as="geometry" />
        </mxCell>
        <mxCell id="cwQXnEI9I7Ugpv4NzCKq-21" value="" style="endArrow=none;html=1;rounded=0;strokeColor=#3333FF;fontColor=#3333FF;exitX=0.95;exitY=0.525;exitDx=0;exitDy=0;exitPerimeter=0;" parent="1" source="cwQXnEI9I7Ugpv4NzCKq-19" edge="1">
          <mxGeometry width="50" height="50" relative="1" as="geometry">
            <mxPoint x="1090" y="490.62" as="sourcePoint" />
            <mxPoint x="1110" y="490" as="targetPoint" />
          </mxGeometry>
        </mxCell>
        <mxCell id="cwQXnEI9I7Ugpv4NzCKq-22" value="" style="endArrow=none;html=1;rounded=0;strokeColor=#3333FF;fontColor=#3333FF;exitX=0.9;exitY=0.513;exitDx=0;exitDy=0;exitPerimeter=0;" parent="1" source="EUu6mg04dgHktvgB9pTH-91" edge="1">
          <mxGeometry width="50" height="50" relative="1" as="geometry">
            <mxPoint x="1090" y="510.25" as="sourcePoint" />
            <mxPoint x="1110" y="510" as="targetPoint" />
          </mxGeometry>
        </mxCell>
        <mxCell id="cwQXnEI9I7Ugpv4NzCKq-23" value="Flow Control" style="text;html=1;strokeColor=none;fillColor=none;align=center;verticalAlign=middle;whiteSpace=wrap;rounded=0;fontColor=#3333FF;" parent="1" vertex="1">
          <mxGeometry x="1120" y="529.34" width="45" height="30" as="geometry" />
        </mxCell>
        <mxCell id="cwQXnEI9I7Ugpv4NzCKq-24" value="&lt;font style=&quot;font-size: 12px;&quot;&gt;Switch&lt;/font&gt;" style="whiteSpace=wrap;html=1;aspect=fixed;fillColor=none;strokeColor=#3333FF;fontColor=#3333FF;" parent="1" vertex="1">
          <mxGeometry x="1170.15" y="450.28000000000003" width="49.69" height="49.69" as="geometry" />
        </mxCell>
        <mxCell id="cwQXnEI9I7Ugpv4NzCKq-25" value="" style="endArrow=none;html=1;rounded=0;strokeColor=#3333FF;fontColor=#3333FF;dashed=1;exitX=1.138;exitY=0.549;exitDx=0;exitDy=0;exitPerimeter=0;" parent="1" source="qbNMRIMEjZ6maihlZpFf-6" edge="1">
          <mxGeometry width="50" height="50" relative="1" as="geometry">
            <mxPoint x="1140" y="450.25" as="sourcePoint" />
            <mxPoint x="1170" y="460.25" as="targetPoint" />
            <Array as="points">
              <mxPoint x="1140" y="460.25" />
            </Array>
          </mxGeometry>
        </mxCell>
        <mxCell id="cwQXnEI9I7Ugpv4NzCKq-26" value="&lt;i&gt;0&lt;/i&gt;" style="whiteSpace=wrap;html=1;aspect=fixed;fillColor=none;strokeColor=#3333FF;fontColor=#3333FF;" parent="1" vertex="1">
          <mxGeometry x="1139.49" y="480.49" width="20.51" height="20.51" as="geometry" />
        </mxCell>
        <mxCell id="cwQXnEI9I7Ugpv4NzCKq-28" value="" style="endArrow=none;html=1;rounded=0;strokeColor=#3333FF;dashed=1;" parent="1" edge="1">
          <mxGeometry width="50" height="50" relative="1" as="geometry">
            <mxPoint x="1220" y="475.25" as="sourcePoint" />
            <mxPoint x="1240" y="475.25" as="targetPoint" />
          </mxGeometry>
        </mxCell>
        <mxCell id="cwQXnEI9I7Ugpv4NzCKq-29" value="" style="endArrow=none;html=1;rounded=0;strokeColor=#3333FF;dashed=1;" parent="1" edge="1">
          <mxGeometry width="50" height="50" relative="1" as="geometry">
            <mxPoint x="1160" y="490.25" as="sourcePoint" />
            <mxPoint x="1170" y="490.25" as="targetPoint" />
          </mxGeometry>
        </mxCell>
        <mxCell id="NfkfM8riDZQN8jS3ffes-1" value="" style="ellipse;whiteSpace=wrap;html=1;fontSize=16;strokeWidth=1;" parent="1" vertex="1">
          <mxGeometry x="1240" y="258.9999999999999" width="40" height="40" as="geometry" />
        </mxCell>
        <mxCell id="NfkfM8riDZQN8jS3ffes-2" value="" style="triangle;whiteSpace=wrap;html=1;fontSize=16;strokeWidth=1;rotation=0;fillColor=#000000;" parent="1" vertex="1">
          <mxGeometry x="1260" y="260" width="18" height="40" as="geometry" />
        </mxCell>
        <mxCell id="NfkfM8riDZQN8jS3ffes-3" value="" style="endArrow=none;html=1;rounded=0;" parent="1" edge="1">
          <mxGeometry width="50" height="50" relative="1" as="geometry">
            <mxPoint x="1300" y="360" as="sourcePoint" />
            <mxPoint x="1300" y="280" as="targetPoint" />
          </mxGeometry>
        </mxCell>
        <mxCell id="NfkfM8riDZQN8jS3ffes-5" value="Implemented as&lt;br&gt;ideal component" style="text;html=1;align=left;verticalAlign=middle;resizable=0;points=[];autosize=1;strokeColor=none;fillColor=none;" parent="1" vertex="1">
          <mxGeometry x="1179.84" y="360.00000000000006" width="110" height="40" as="geometry" />
        </mxCell>
        <mxCell id="NfkfM8riDZQN8jS3ffes-6" value="Tank" style="rounded=0;whiteSpace=wrap;html=1;strokeWidth=2;" parent="1" vertex="1">
          <mxGeometry x="1160" y="699.76" width="40" height="40" as="geometry" />
        </mxCell>
        <mxCell id="w12513ni1vJL5LTuAko7-5" value="" style="whiteSpace=wrap;html=1;aspect=fixed;" parent="1" vertex="1">
          <mxGeometry x="1414.75" y="659.25" width="10.25" height="10.25" as="geometry" />
        </mxCell>
      </root>
    </mxGraphModel>
  </diagram>
</mxfile>
